<?xml version="1.0" encoding="UTF-8" standalone="no"?>
<!DOCTYPE svg PUBLIC "-//W3C//DTD SVG 1.1//EN"
 "http://www.w3.org/Graphics/SVG/1.1/DTD/svg11.dtd">
<!-- Generated by graphviz version 2.43.0 (0)
 -->
<!-- Title: fiftyone.geolocation.core.data.GeoDataDefault Pages: 1 -->
<svg width="288pt" height="162pt"
 viewBox="0.00 0.00 288.00 162.00" xmlns="http://www.w3.org/2000/svg" xmlns:xlink="http://www.w3.org/1999/xlink">
<g id="graph0" class="graph" transform="scale(1 1) rotate(0) translate(4 158)">
<title>fiftyone.geolocation.core.data.GeoDataDefault</title>
<!-- Node5 -->
<g id="node1" class="node">
<title>Node5</title>
<g id="a_node1"><a xlink:title=" ">
<polygon fill="#bfbfbf" stroke="black" points="40,-0.5 40,-30.5 205,-30.5 205,-0.5 40,-0.5"/>
<text text-anchor="start" x="48" y="-18.5" font-family="Helvetica,sans-Serif" font-size="10.00">fiftyone.geolocation.core.data.</text>
<text text-anchor="middle" x="122.5" y="-7.5" font-family="Helvetica,sans-Serif" font-size="10.00">GeoDataDefault</text>
</a>
</g>
</g>
<!-- Node6 -->
<g id="node2" class="node">
<title>Node6</title>
<g id="a_node2"><a xlink:title=" ">
<polygon fill="none" stroke="#bfbfbf" points="0,-73 0,-92 97,-92 97,-73 0,-73"/>
<text text-anchor="middle" x="48.5" y="-80" font-family="Helvetica,sans-Serif" font-size="10.00">AspectDataBase</text>
</a>
</g>
</g>
<!-- Node6&#45;&gt;Node5 -->
<g id="edge1" class="edge">
<title>Node6&#45;&gt;Node5</title>
<path fill="none" stroke="midnightblue" d="M66.23,-65.93C78.47,-55.18 94.6,-41 106.46,-30.59"/>
<polygon fill="midnightblue" stroke="midnightblue" points="63.68,-63.5 58.48,-72.73 68.3,-68.76 63.68,-63.5"/>
</g>
<!-- Node7 -->
<g id="node3" class="node">
<title>Node7</title>
<g id="a_node3"><a xlink:href="interfacefiftyone_1_1geolocation_1_1core_1_1data_1_1_geo_data.html" target="_top" xlink:title=" ">
<polygon fill="none" stroke="black" points="115,-67.5 115,-97.5 280,-97.5 280,-67.5 115,-67.5"/>
<text text-anchor="start" x="123" y="-85.5" font-family="Helvetica,sans-Serif" font-size="10.00">fiftyone.geolocation.core.data.</text>
<text text-anchor="middle" x="197.5" y="-74.5" font-family="Helvetica,sans-Serif" font-size="10.00">GeoData</text>
</a>
</g>
</g>
<!-- Node7&#45;&gt;Node5 -->
<g id="edge2" class="edge">
<title>Node7&#45;&gt;Node5</title>
<path fill="none" stroke="midnightblue" d="M173.38,-60.6C162.06,-50.78 148.86,-39.34 138.74,-30.58"/>
<polygon fill="midnightblue" stroke="midnightblue" points="171.38,-63.49 181.23,-67.4 175.96,-58.2 171.38,-63.49"/>
</g>
<!-- Node8 -->
<g id="node4" class="node">
<title>Node8</title>
<g id="a_node4"><a xlink:title=" ">
<polygon fill="none" stroke="#bfbfbf" points="161,-134.5 161,-153.5 234,-153.5 234,-134.5 161,-134.5"/>
<text text-anchor="middle" x="197.5" y="-141.5" font-family="Helvetica,sans-Serif" font-size="10.00">AspectData</text>
</a>
</g>
</g>
<!-- Node8&#45;&gt;Node7 -->
<g id="edge3" class="edge">
<title>Node8&#45;&gt;Node7</title>
<path fill="none" stroke="midnightblue" d="M197.5,-124.23C197.5,-115.59 197.5,-105.5 197.5,-97.52"/>
<polygon fill="midnightblue" stroke="midnightblue" points="194,-124.48 197.5,-134.48 201,-124.48 194,-124.48"/>
</g>
</g>
</svg>
