<?xml version="1.0" encoding="UTF-8" standalone="no"?>
<!DOCTYPE svg PUBLIC "-//W3C//DTD SVG 1.1//EN"
 "http://www.w3.org/Graphics/SVG/1.1/DTD/svg11.dtd">
<!-- Generated by graphviz version 2.43.0 (0)
 -->
<!-- Title: fiftyone.geolocation.web.examples.mvc.configuration.ExampleMvcConfig Pages: 1 -->
<svg width="366pt" height="106pt"
 viewBox="0.00 0.00 366.00 106.00" xmlns="http://www.w3.org/2000/svg" xmlns:xlink="http://www.w3.org/1999/xlink">
<g id="graph0" class="graph" transform="scale(1 1) rotate(0) translate(4 102)">
<title>fiftyone.geolocation.web.examples.mvc.configuration.ExampleMvcConfig</title>
<!-- Node2 -->
<g id="node1" class="node">
<title>Node2</title>
<g id="a_node1"><a xlink:title=" ">
<polygon fill="#bfbfbf" stroke="black" points="30.5,-0.5 30.5,-30.5 311.5,-30.5 311.5,-0.5 30.5,-0.5"/>
<text text-anchor="start" x="38.5" y="-18.5" font-family="Helvetica,sans-Serif" font-size="10.00">fiftyone.geolocation.web.examples.mvc.configuration.</text>
<text text-anchor="middle" x="171" y="-7.5" font-family="Helvetica,sans-Serif" font-size="10.00">ExampleMvcConfig</text>
</a>
</g>
</g>
<!-- Node3 -->
<g id="node2" class="node">
<title>Node3</title>
<g id="a_node2"><a xlink:title=" ">
<polygon fill="none" stroke="#bfbfbf" points="0,-78.5 0,-97.5 108,-97.5 108,-78.5 0,-78.5"/>
<text text-anchor="middle" x="54" y="-85.5" font-family="Helvetica,sans-Serif" font-size="10.00">WebMvcConfigurer</text>
</a>
</g>
</g>
<!-- Node3&#45;&gt;Node2 -->
<g id="edge1" class="edge">
<title>Node3&#45;&gt;Node2</title>
<path fill="none" stroke="midnightblue" d="M77.01,-73.14C97.43,-60.83 127.12,-42.94 147.64,-30.58"/>
<polygon fill="midnightblue" stroke="midnightblue" points="75.11,-70.2 68.35,-78.36 78.72,-76.19 75.11,-70.2"/>
</g>
<!-- Node4 -->
<g id="node3" class="node">
<title>Node4</title>
<g id="a_node3"><a xlink:title=" ">
<polygon fill="none" stroke="#bfbfbf" points="126.5,-78.5 126.5,-97.5 215.5,-97.5 215.5,-78.5 126.5,-78.5"/>
<text text-anchor="middle" x="171" y="-85.5" font-family="Helvetica,sans-Serif" font-size="10.00">ServletContext</text>
</a>
</g>
</g>
<!-- Node4&#45;&gt;Node2 -->
<g id="edge2" class="edge">
<title>Node4&#45;&gt;Node2</title>
<path fill="none" stroke="#9a32cd" stroke-dasharray="5,2" d="M171,-68.24C171,-56.41 171,-41.38 171,-30.58"/>
<polygon fill="#9a32cd" stroke="#9a32cd" points="167.5,-68.36 171,-78.36 174.5,-68.36 167.5,-68.36"/>
<text text-anchor="middle" x="209" y="-52" font-family="Helvetica,sans-Serif" font-size="10.00"> servletContext</text>
</g>
<!-- Node5 -->
<g id="node4" class="node">
<title>Node5</title>
<g id="a_node4"><a xlink:title=" ">
<polygon fill="none" stroke="#bfbfbf" points="234,-78.5 234,-97.5 344,-97.5 344,-78.5 234,-78.5"/>
<text text-anchor="middle" x="289" y="-85.5" font-family="Helvetica,sans-Serif" font-size="10.00">FiftyOneInterceptor</text>
</a>
</g>
</g>
<!-- Node5&#45;&gt;Node2 -->
<g id="edge3" class="edge">
<title>Node5&#45;&gt;Node2</title>
<path fill="none" stroke="#9a32cd" stroke-dasharray="5,2" d="M275.25,-70.51C268.52,-63.2 259.94,-54.93 251,-49 239.88,-41.63 226.82,-35.45 214.52,-30.53"/>
<polygon fill="#9a32cd" stroke="#9a32cd" points="273,-73.25 282.22,-78.46 278.26,-68.63 273,-73.25"/>
<text text-anchor="middle" x="310.5" y="-52" font-family="Helvetica,sans-Serif" font-size="10.00"> fiftyOneInterceptor</text>
</g>
</g>
</svg>
