<?xml version="1.0" encoding="UTF-8" standalone="no"?>
<!DOCTYPE svg PUBLIC "-//W3C//DTD SVG 1.1//EN"
 "http://www.w3.org/Graphics/SVG/1.1/DTD/svg11.dtd">
<!-- Generated by graphviz version 2.43.0 (0)
 -->
<!-- Title: fiftyone.geolocation.web.examples.servlet.Example Pages: 1 -->
<svg width="244pt" height="106pt"
 viewBox="0.00 0.00 243.50 106.00" xmlns="http://www.w3.org/2000/svg" xmlns:xlink="http://www.w3.org/1999/xlink">
<g id="graph0" class="graph" transform="scale(1 1) rotate(0) translate(4 102)">
<title>fiftyone.geolocation.web.examples.servlet.Example</title>
<!-- Node2 -->
<g id="node1" class="node">
<title>Node2</title>
<g id="a_node1"><a xlink:title=" ">
<polygon fill="#bfbfbf" stroke="black" points="0,-0.5 0,-30.5 227,-30.5 227,-0.5 0,-0.5"/>
<text text-anchor="start" x="8" y="-18.5" font-family="Helvetica,sans-Serif" font-size="10.00">fiftyone.geolocation.web.examples.servlet.</text>
<text text-anchor="middle" x="113.5" y="-7.5" font-family="Helvetica,sans-Serif" font-size="10.00">Example</text>
</a>
</g>
</g>
<!-- Node3 -->
<g id="node2" class="node">
<title>Node3</title>
<g id="a_node2"><a xlink:title=" ">
<polygon fill="none" stroke="#bfbfbf" points="19.5,-78.5 19.5,-97.5 91.5,-97.5 91.5,-78.5 19.5,-78.5"/>
<text text-anchor="middle" x="55.5" y="-85.5" font-family="Helvetica,sans-Serif" font-size="10.00">HttpServlet</text>
</a>
</g>
</g>
<!-- Node3&#45;&gt;Node2 -->
<g id="edge1" class="edge">
<title>Node3&#45;&gt;Node2</title>
<path fill="none" stroke="midnightblue" d="M69.16,-70.39C79.13,-58.28 92.48,-42.05 101.92,-30.58"/>
<polygon fill="midnightblue" stroke="midnightblue" points="66.26,-68.41 62.61,-78.36 71.67,-72.86 66.26,-68.41"/>
</g>
<!-- Node4 -->
<g id="node3" class="node">
<title>Node4</title>
<g id="a_node3"><a xlink:title=" ">
<polygon fill="none" stroke="#bfbfbf" points="109.5,-78.5 109.5,-97.5 235.5,-97.5 235.5,-78.5 109.5,-78.5"/>
<text text-anchor="middle" x="172.5" y="-85.5" font-family="Helvetica,sans-Serif" font-size="10.00">FlowDataProviderCore</text>
</a>
</g>
</g>
<!-- Node4&#45;&gt;Node2 -->
<g id="edge2" class="edge">
<title>Node4&#45;&gt;Node2</title>
<path fill="none" stroke="#9a32cd" stroke-dasharray="5,2" d="M158.6,-70.39C148.47,-58.28 134.88,-42.05 125.28,-30.58"/>
<polygon fill="#9a32cd" stroke="#9a32cd" points="156.16,-72.93 165.27,-78.36 161.53,-68.44 156.16,-72.93"/>
<text text-anchor="middle" x="191.5" y="-52" font-family="Helvetica,sans-Serif" font-size="10.00"> flowDataProvider</text>
</g>
</g>
</svg>
