<?xml version="1.0" encoding="UTF-8" standalone="no"?>
<!DOCTYPE svg PUBLIC "-//W3C//DTD SVG 1.1//EN"
 "http://www.w3.org/Graphics/SVG/1.1/DTD/svg11.dtd">
<!-- Generated by graphviz version 2.43.0 (0)
 -->
<!-- Title: fiftyone.geolocation.core.data.GeoDataDefault Pages: 1 -->
<svg width="288pt" height="229pt"
 viewBox="0.00 0.00 288.00 229.00" xmlns="http://www.w3.org/2000/svg" xmlns:xlink="http://www.w3.org/1999/xlink">
<g id="graph0" class="graph" transform="scale(1 1) rotate(0) translate(4 225)">
<title>fiftyone.geolocation.core.data.GeoDataDefault</title>
<!-- Node0 -->
<g id="node1" class="node">
<title>Node0</title>
<g id="a_node1"><a xlink:title=" ">
<polygon fill="#bfbfbf" stroke="black" points="40,-67.5 40,-97.5 205,-97.5 205,-67.5 40,-67.5"/>
<text text-anchor="start" x="48" y="-85.5" font-family="Helvetica,sans-Serif" font-size="10.00">fiftyone.geolocation.core.data.</text>
<text text-anchor="middle" x="122.5" y="-74.5" font-family="Helvetica,sans-Serif" font-size="10.00">GeoDataDefault</text>
</a>
</g>
</g>
<!-- Node4 -->
<g id="node5" class="node">
<title>Node4</title>
<g id="a_node5"><a xlink:href="classfiftyone_1_1geolocation_1_1data_1_1_cloud_geo_data_default.html" target="_top" xlink:title=" ">
<polygon fill="none" stroke="black" points="52,-0.5 52,-30.5 193,-30.5 193,-0.5 52,-0.5"/>
<text text-anchor="start" x="60" y="-18.5" font-family="Helvetica,sans-Serif" font-size="10.00">fiftyone.geolocation.data.</text>
<text text-anchor="middle" x="122.5" y="-7.5" font-family="Helvetica,sans-Serif" font-size="10.00">CloudGeoDataDefault</text>
</a>
</g>
</g>
<!-- Node0&#45;&gt;Node4 -->
<g id="edge4" class="edge">
<title>Node0&#45;&gt;Node4</title>
<path fill="none" stroke="midnightblue" d="M122.5,-57.11C122.5,-48.15 122.5,-38.32 122.5,-30.58"/>
<polygon fill="midnightblue" stroke="midnightblue" points="119,-57.4 122.5,-67.4 126,-57.4 119,-57.4"/>
</g>
<!-- Node1 -->
<g id="node2" class="node">
<title>Node1</title>
<g id="a_node2"><a xlink:title=" ">
<polygon fill="none" stroke="#bfbfbf" points="0,-140 0,-159 97,-159 97,-140 0,-140"/>
<text text-anchor="middle" x="48.5" y="-147" font-family="Helvetica,sans-Serif" font-size="10.00">AspectDataBase</text>
</a>
</g>
</g>
<!-- Node1&#45;&gt;Node0 -->
<g id="edge1" class="edge">
<title>Node1&#45;&gt;Node0</title>
<path fill="none" stroke="midnightblue" d="M66.23,-132.93C78.47,-122.18 94.6,-108 106.46,-97.59"/>
<polygon fill="midnightblue" stroke="midnightblue" points="63.68,-130.5 58.48,-139.73 68.3,-135.76 63.68,-130.5"/>
</g>
<!-- Node2 -->
<g id="node3" class="node">
<title>Node2</title>
<g id="a_node3"><a xlink:href="interfacefiftyone_1_1geolocation_1_1core_1_1data_1_1_geo_data.html" target="_top" xlink:title=" ">
<polygon fill="none" stroke="black" points="115,-134.5 115,-164.5 280,-164.5 280,-134.5 115,-134.5"/>
<text text-anchor="start" x="123" y="-152.5" font-family="Helvetica,sans-Serif" font-size="10.00">fiftyone.geolocation.core.data.</text>
<text text-anchor="middle" x="197.5" y="-141.5" font-family="Helvetica,sans-Serif" font-size="10.00">GeoData</text>
</a>
</g>
</g>
<!-- Node2&#45;&gt;Node0 -->
<g id="edge2" class="edge">
<title>Node2&#45;&gt;Node0</title>
<path fill="none" stroke="midnightblue" d="M173.38,-127.6C162.06,-117.78 148.86,-106.34 138.74,-97.58"/>
<polygon fill="midnightblue" stroke="midnightblue" points="171.38,-130.49 181.23,-134.4 175.96,-125.2 171.38,-130.49"/>
</g>
<!-- Node3 -->
<g id="node4" class="node">
<title>Node3</title>
<g id="a_node4"><a xlink:title=" ">
<polygon fill="none" stroke="#bfbfbf" points="161,-201.5 161,-220.5 234,-220.5 234,-201.5 161,-201.5"/>
<text text-anchor="middle" x="197.5" y="-208.5" font-family="Helvetica,sans-Serif" font-size="10.00">AspectData</text>
</a>
</g>
</g>
<!-- Node3&#45;&gt;Node2 -->
<g id="edge3" class="edge">
<title>Node3&#45;&gt;Node2</title>
<path fill="none" stroke="midnightblue" d="M197.5,-191.23C197.5,-182.59 197.5,-172.5 197.5,-164.52"/>
<polygon fill="midnightblue" stroke="midnightblue" points="194,-191.48 197.5,-201.48 201,-191.48 194,-191.48"/>
</g>
</g>
</svg>
