<?xml version="1.0" encoding="UTF-8" standalone="no"?>
<!DOCTYPE svg PUBLIC "-//W3C//DTD SVG 1.1//EN"
 "http://www.w3.org/Graphics/SVG/1.1/DTD/svg11.dtd">
<!-- Generated by graphviz version 2.43.0 (0)
 -->
<!-- Title: fiftyone.geolocation.data.CloudGeoData Pages: 1 -->
<svg width="173pt" height="229pt"
 viewBox="0.00 0.00 173.00 229.00" xmlns="http://www.w3.org/2000/svg" xmlns:xlink="http://www.w3.org/1999/xlink">
<g id="graph0" class="graph" transform="scale(1 1) rotate(0) translate(4 225)">
<title>fiftyone.geolocation.data.CloudGeoData</title>
<!-- Node0 -->
<g id="node1" class="node">
<title>Node0</title>
<g id="a_node1"><a xlink:title=" ">
<polygon fill="#bfbfbf" stroke="black" points="12,-67.5 12,-97.5 153,-97.5 153,-67.5 12,-67.5"/>
<text text-anchor="start" x="20" y="-85.5" font-family="Helvetica,sans-Serif" font-size="10.00">fiftyone.geolocation.data.</text>
<text text-anchor="middle" x="82.5" y="-74.5" font-family="Helvetica,sans-Serif" font-size="10.00">CloudGeoData</text>
</a>
</g>
</g>
<!-- Node3 -->
<g id="node4" class="node">
<title>Node3</title>
<g id="a_node4"><a xlink:href="classfiftyone_1_1geolocation_1_1data_1_1_cloud_geo_data_default.html" target="_top" xlink:title=" ">
<polygon fill="none" stroke="black" points="12,-0.5 12,-30.5 153,-30.5 153,-0.5 12,-0.5"/>
<text text-anchor="start" x="20" y="-18.5" font-family="Helvetica,sans-Serif" font-size="10.00">fiftyone.geolocation.data.</text>
<text text-anchor="middle" x="82.5" y="-7.5" font-family="Helvetica,sans-Serif" font-size="10.00">CloudGeoDataDefault</text>
</a>
</g>
</g>
<!-- Node0&#45;&gt;Node3 -->
<g id="edge3" class="edge">
<title>Node0&#45;&gt;Node3</title>
<path fill="none" stroke="midnightblue" d="M82.5,-57.11C82.5,-48.15 82.5,-38.32 82.5,-30.58"/>
<polygon fill="midnightblue" stroke="midnightblue" points="79,-57.4 82.5,-67.4 86,-57.4 79,-57.4"/>
</g>
<!-- Node1 -->
<g id="node2" class="node">
<title>Node1</title>
<g id="a_node2"><a xlink:href="interfacefiftyone_1_1geolocation_1_1core_1_1data_1_1_geo_data.html" target="_top" xlink:title=" ">
<polygon fill="none" stroke="black" points="0,-134.5 0,-164.5 165,-164.5 165,-134.5 0,-134.5"/>
<text text-anchor="start" x="8" y="-152.5" font-family="Helvetica,sans-Serif" font-size="10.00">fiftyone.geolocation.core.data.</text>
<text text-anchor="middle" x="82.5" y="-141.5" font-family="Helvetica,sans-Serif" font-size="10.00">GeoData</text>
</a>
</g>
</g>
<!-- Node1&#45;&gt;Node0 -->
<g id="edge1" class="edge">
<title>Node1&#45;&gt;Node0</title>
<path fill="none" stroke="midnightblue" d="M82.5,-124.11C82.5,-115.15 82.5,-105.32 82.5,-97.58"/>
<polygon fill="midnightblue" stroke="midnightblue" points="79,-124.4 82.5,-134.4 86,-124.4 79,-124.4"/>
</g>
<!-- Node2 -->
<g id="node3" class="node">
<title>Node2</title>
<g id="a_node3"><a xlink:title=" ">
<polygon fill="none" stroke="#bfbfbf" points="46,-201.5 46,-220.5 119,-220.5 119,-201.5 46,-201.5"/>
<text text-anchor="middle" x="82.5" y="-208.5" font-family="Helvetica,sans-Serif" font-size="10.00">AspectData</text>
</a>
</g>
</g>
<!-- Node2&#45;&gt;Node1 -->
<g id="edge2" class="edge">
<title>Node2&#45;&gt;Node1</title>
<path fill="none" stroke="midnightblue" d="M82.5,-191.23C82.5,-182.59 82.5,-172.5 82.5,-164.52"/>
<polygon fill="midnightblue" stroke="midnightblue" points="79,-191.48 82.5,-201.48 86,-191.48 79,-191.48"/>
</g>
</g>
</svg>
