<?xml version="1.0" encoding="UTF-8" standalone="no"?>
<!DOCTYPE svg PUBLIC "-//W3C//DTD SVG 1.1//EN"
 "http://www.w3.org/Graphics/SVG/1.1/DTD/svg11.dtd">
<!-- Generated by graphviz version 2.43.0 (0)
 -->
<!-- Title: fiftyone.geolocation.core.data.GeoData Pages: 1 -->
<svg width="660pt" height="88pt"
 viewBox="0.00 0.00 660.00 88.00" xmlns="http://www.w3.org/2000/svg" xmlns:xlink="http://www.w3.org/1999/xlink">
<g id="graph0" class="graph" transform="scale(1 1) rotate(0) translate(4 84)">
<title>fiftyone.geolocation.core.data.GeoData</title>
<!-- Node0 -->
<g id="node1" class="node">
<title>Node0</title>
<g id="a_node1"><a xlink:title=" ">
<polygon fill="#bfbfbf" stroke="black" points="109,-24.5 109,-54.5 274,-54.5 274,-24.5 109,-24.5"/>
<text text-anchor="start" x="117" y="-42.5" font-family="Helvetica,sans-Serif" font-size="10.00">fiftyone.geolocation.core.data.</text>
<text text-anchor="middle" x="191.5" y="-31.5" font-family="Helvetica,sans-Serif" font-size="10.00">GeoData</text>
</a>
</g>
</g>
<!-- Node2 -->
<g id="node3" class="node">
<title>Node2</title>
<g id="a_node3"><a xlink:href="classfiftyone_1_1geolocation_1_1core_1_1data_1_1_geo_data_default.html" target="_top" xlink:title=" ">
<polygon fill="none" stroke="black" points="310,-49.5 310,-79.5 475,-79.5 475,-49.5 310,-49.5"/>
<text text-anchor="start" x="318" y="-67.5" font-family="Helvetica,sans-Serif" font-size="10.00">fiftyone.geolocation.core.data.</text>
<text text-anchor="middle" x="392.5" y="-56.5" font-family="Helvetica,sans-Serif" font-size="10.00">GeoDataDefault</text>
</a>
</g>
</g>
<!-- Node0&#45;&gt;Node2 -->
<g id="edge2" class="edge">
<title>Node0&#45;&gt;Node2</title>
<path fill="none" stroke="midnightblue" d="M284.04,-51C292.63,-52.08 301.3,-53.17 309.79,-54.23"/>
<polygon fill="midnightblue" stroke="midnightblue" points="284.37,-47.51 274.02,-49.74 283.5,-54.46 284.37,-47.51"/>
</g>
<!-- Node4 -->
<g id="node5" class="node">
<title>Node4</title>
<g id="a_node5"><a xlink:href="interfacefiftyone_1_1geolocation_1_1data_1_1_cloud_geo_data.html" target="_top" xlink:title=" ">
<polygon fill="none" stroke="black" points="322,-0.5 322,-30.5 463,-30.5 463,-0.5 322,-0.5"/>
<text text-anchor="start" x="330" y="-18.5" font-family="Helvetica,sans-Serif" font-size="10.00">fiftyone.geolocation.data.</text>
<text text-anchor="middle" x="392.5" y="-7.5" font-family="Helvetica,sans-Serif" font-size="10.00">CloudGeoData</text>
</a>
</g>
</g>
<!-- Node0&#45;&gt;Node4 -->
<g id="edge4" class="edge">
<title>Node0&#45;&gt;Node4</title>
<path fill="none" stroke="midnightblue" d="M284.14,-28.45C296.82,-26.92 309.68,-25.37 321.88,-23.9"/>
<polygon fill="midnightblue" stroke="midnightblue" points="283.52,-25 274.02,-29.67 284.36,-31.95 283.52,-25"/>
</g>
<!-- Node1 -->
<g id="node2" class="node">
<title>Node1</title>
<g id="a_node2"><a xlink:title=" ">
<polygon fill="none" stroke="#bfbfbf" points="0,-30 0,-49 73,-49 73,-30 0,-30"/>
<text text-anchor="middle" x="36.5" y="-37" font-family="Helvetica,sans-Serif" font-size="10.00">AspectData</text>
</a>
</g>
</g>
<!-- Node1&#45;&gt;Node0 -->
<g id="edge1" class="edge">
<title>Node1&#45;&gt;Node0</title>
<path fill="none" stroke="midnightblue" d="M83.61,-39.5C91.65,-39.5 100.24,-39.5 108.91,-39.5"/>
<polygon fill="midnightblue" stroke="midnightblue" points="83.37,-36 73.37,-39.5 83.37,-43 83.37,-36"/>
</g>
<!-- Node3 -->
<g id="node4" class="node">
<title>Node3</title>
<g id="a_node4"><a xlink:href="classfiftyone_1_1geolocation_1_1data_1_1_cloud_geo_data_default.html" target="_top" xlink:title=" ">
<polygon fill="none" stroke="black" points="511,-24.5 511,-54.5 652,-54.5 652,-24.5 511,-24.5"/>
<text text-anchor="start" x="519" y="-42.5" font-family="Helvetica,sans-Serif" font-size="10.00">fiftyone.geolocation.data.</text>
<text text-anchor="middle" x="581.5" y="-31.5" font-family="Helvetica,sans-Serif" font-size="10.00">CloudGeoDataDefault</text>
</a>
</g>
</g>
<!-- Node2&#45;&gt;Node3 -->
<g id="edge3" class="edge">
<title>Node2&#45;&gt;Node3</title>
<path fill="none" stroke="midnightblue" d="M485.33,-52.22C493.93,-51.07 502.56,-49.92 510.91,-48.8"/>
<polygon fill="midnightblue" stroke="midnightblue" points="484.7,-48.78 475.25,-53.57 485.62,-55.71 484.7,-48.78"/>
</g>
<!-- Node4&#45;&gt;Node3 -->
<g id="edge5" class="edge">
<title>Node4&#45;&gt;Node3</title>
<path fill="none" stroke="midnightblue" d="M473.1,-25.72C485.64,-27.33 498.52,-28.98 510.81,-30.56"/>
<polygon fill="midnightblue" stroke="midnightblue" points="473.5,-22.24 463.13,-24.44 472.6,-29.18 473.5,-22.24"/>
</g>
</g>
</svg>
